<svg width="27" height="17" viewBox="0 0 27 17" fill="none" xmlns="http://www.w3.org/2000/svg">
<g clip-path="url(#clip0_10699_115712)">
<path d="M17.1901 2.44482H10.1836V15.0009H17.1901V2.44482Z" fill="#FF5F00"/>
<path d="M10.6273 8.72575C10.6264 7.51671 10.9012 6.32329 11.4311 5.23582C11.9609 4.14834 12.7319 3.1953 13.6857 2.44882C12.5044 1.52307 11.0858 0.94741 9.59191 0.787616C8.09805 0.627823 6.58924 0.890349 5.23793 1.54519C3.88661 2.20003 2.74731 3.22076 1.95024 4.49073C1.15316 5.7607 0.730469 7.22867 0.730469 8.72686C0.730469 10.225 1.15316 11.693 1.95024 12.963C2.74731 14.2329 3.88661 15.2537 5.23793 15.9085C6.58924 16.5634 8.09805 16.8259 9.59191 16.6661C11.0858 16.5063 12.5044 15.9306 13.6857 15.0049C12.7316 14.2582 11.9605 13.3048 11.4306 12.2169C10.9007 11.129 10.626 9.93516 10.6273 8.72575Z" fill="#EB001B"/>
<path d="M26.6439 8.72596C26.6439 10.2243 26.2211 11.6923 25.4239 12.9623C24.6266 14.2323 23.4872 15.2531 22.1357 15.9078C20.7842 16.5626 19.2752 16.8249 17.7813 16.6649C16.2874 16.5049 14.8687 15.9289 13.6875 15.0029C14.6409 14.2557 15.4117 13.3024 15.9417 12.2149C16.4717 11.1274 16.7471 9.934 16.7471 8.72485C16.7471 7.5157 16.4717 6.32233 15.9417 5.2348C15.4117 4.14726 14.6409 3.19396 13.6875 2.44681C14.8688 1.52066 16.2877 0.944691 17.7819 0.784752C19.276 0.624813 20.7851 0.88736 22.1367 1.54238C23.4883 2.19739 24.6277 3.21844 25.4247 4.48878C26.2218 5.75912 26.6443 7.22747 26.6439 8.72596Z" fill="#F79E1B"/>
<path d="M25.8705 13.6698V13.4125H25.9751V13.3615H25.7148V13.4147H25.8194V13.672L25.8705 13.6698ZM26.3843 13.6698V13.3593H26.3154L26.222 13.5811L26.1286 13.3593H26.0463V13.6698H26.093V13.4369L26.1797 13.6387H26.2398L26.3265 13.4369V13.672L26.3843 13.6698Z" fill="#F79E1B"/>
</g>
<defs>
<clipPath id="clip0_10699_115712">
<rect width="27" height="17" fill="white"/>
</clipPath>
</defs>
</svg>
