<svg width="40" height="12" viewBox="0 0 40 12" fill="none" xmlns="http://www.w3.org/2000/svg">
<g clip-path="url(#clip0_10699_115718)">
<path d="M8.74918 1.575L7.26396 7.0875H7.00986L5.52464 1.575C5.27054 0.642186 4.47316 0 3.56188 0H0V12H3.56626V4.90781H3.82038L5.862 12H8.41184L10.4491 4.90781H10.7032V12H14.2695V0H10.7076C9.80066 0 9.0033 0.642186 8.74918 1.575ZM28.495 12H32.0832V8.45156H35.6934C37.5816 8.45156 39.1896 7.30781 39.8116 5.7H28.495V12ZM22.138 1.26562L19.6276 7.09219H19.3735V0H15.8072V12H18.8346C19.632 12 20.3548 11.5031 20.6878 10.7344L23.1982 4.9125H23.4524V12H27.0186V0H23.9912C23.1938 0 22.471 0.496875 22.138 1.26562Z" fill="#006848"/>
<path d="M36.0477 0C37.0773 0 38.0105 0.421875 38.7159 1.11563C39.5045 1.88438 39.9995 2.99064 39.9995 4.22344C39.9995 4.47656 39.9733 4.725 39.9338 4.96875H33.3095C31.0663 4.96875 29.1649 3.39375 28.5253 1.21875C28.5165 1.19531 28.5121 1.16719 28.5034 1.13906C28.4858 1.07344 28.4727 1.00312 28.4552 0.9375C28.3895 0.632811 28.3456 0.323436 28.3281 0H36.0477Z" fill="url(#paint0_linear_10699_115718)"/>
</g>
<defs>
<linearGradient id="paint0_linear_10699_115718" x1="39.9996" y1="15.5398" x2="28.3996" y2="15.5398" gradientUnits="userSpaceOnUse">
<stop stop-color="#1E5CD8"/>
<stop offset="1" stop-color="#02AFFF"/>
</linearGradient>
<clipPath id="clip0_10699_115718">
<rect width="40" height="12" fill="white"/>
</clipPath>
</defs>
</svg>
