<svg width="70" height="22" viewBox="0 0 70 22" fill="none" xmlns="http://www.w3.org/2000/svg">
<g clip-path="url(#clip0_10699_115675)">
<path d="M24.8948 10.2909L25.2222 9.26713L24.139 9.30036C24.0475 9.30036 23.3823 9.28194 22.737 8.82489C22.7851 8.82952 22.8332 8.83593 22.8823 8.83593C23.5465 8.83593 24.189 8.44525 24.4466 7.88682L24.9127 6.87784C24.3287 6.88517 23.7946 6.81331 23.7946 6.81331C23.7899 6.81239 23.3691 6.75982 22.8823 6.27426C22.5331 5.92593 22.101 5.74163 21.633 5.74163C21.4283 5.74163 21.2452 5.77757 21.0877 5.82643C21.1122 5.74443 21.1358 5.66147 21.149 5.57576C21.298 4.63128 20.6754 3.91068 20.6754 3.91159L19.8611 2.92654L19.3563 4.08393C19.3544 4.08763 19.2271 4.35851 18.9987 4.49123C18.9298 4.1512 18.761 3.76876 18.3996 3.40298C17.7183 2.71371 16.889 2.61142 16.455 2.61142C16.254 2.61142 16.1106 2.63263 16.0757 2.63815L15.0926 2.82704C15.1491 2.61233 15.2699 2.23916 15.4907 1.90283L16.0333 1.07716L14.668 1.2292L14.233 0.327117L13.3914 0.751011L12.613 0L11.8364 0.751011L10.992 0.327117L10.558 1.2292L9.19369 1.07716L9.73709 1.90283C9.95791 2.23916 10.0787 2.61142 10.1344 2.82613L9.19644 2.64554L9.1644 2.63996C9.11721 2.63263 8.97478 2.61142 8.77285 2.61142C8.33881 2.61142 7.50949 2.71463 6.83011 3.40298C6.4678 3.76785 6.29893 4.1512 6.22911 4.49123C6.0027 4.36039 5.87622 4.09315 5.87622 4.09315L5.37051 2.92933L4.54308 3.9208C4.44208 4.04891 3.943 4.72615 4.07884 5.5776C4.09302 5.66239 4.11565 5.74535 4.14019 5.82734C3.98357 5.77848 3.8005 5.74255 3.59579 5.74255C3.12779 5.74255 2.69567 5.92685 2.34563 6.27518C1.8606 6.75895 1.44168 6.81331 1.4455 6.81331C1.4455 6.81331 1.00297 6.89072 0.317983 6.87871L0.781239 7.88773C1.03885 8.44704 1.68228 8.83685 2.34563 8.83685C2.39563 8.83685 2.44372 8.83039 2.49281 8.8258C1.84932 9.28285 1.18413 9.30128 1.10391 9.3022L0 9.26713L0.334014 10.29C0.501976 10.817 1.06333 11.6906 2.139 11.7846C2.02197 12.2638 1.7625 12.8001 1.19263 13.0314L0.370825 13.3622L0.818972 14.1242C1.07184 14.5352 1.66532 15.0162 2.51069 15.0162C2.69376 15.0153 2.87017 14.9978 3.04004 14.9627C3.08345 15.1507 3.13815 15.3387 3.20233 15.5248C3.45422 16.2565 3.23723 16.767 3.2344 16.7725L2.82867 17.6028L3.73447 17.8359C3.74581 17.8396 4.01939 17.9124 4.36192 17.9124C4.51761 17.9124 4.6657 17.8967 4.80538 17.8644C4.91101 17.8405 5.01202 17.8083 5.10916 17.7695C5.22617 17.975 5.36864 18.1621 5.53471 18.3298C6.115 18.9112 6.93681 19.2061 7.97842 19.2061H7.98219L8.7257 19.1969L7.18962 19.8198L8.35584 20.3699C8.77947 20.5717 9.28235 20.8104 9.79375 20.9928L9.64843 21.3817L10.0504 21.5605C10.0862 21.5761 10.859 21.9143 12.1441 21.9862C12.1441 21.9862 12.4545 22 12.6252 22C12.796 22 13.1026 21.9852 13.1026 21.9852C14.3793 21.9115 15.1463 21.577 15.1822 21.5605L15.5851 21.3807L15.4379 20.9909C15.9644 20.803 16.4852 20.5551 16.8909 20.3616L18.0354 19.8189L16.504 19.195L17.2504 19.2042C18.293 19.2042 19.1157 18.9094 19.695 18.327C19.8601 18.1602 20.0027 17.9731 20.1206 17.7677C20.2178 17.8064 20.3196 17.8386 20.4253 17.8626C20.564 17.8948 20.7122 17.9105 20.8678 17.9105C21.2046 17.9105 21.4811 17.8377 21.4886 17.8359L22.3982 17.6009L22.0019 16.7863C21.9925 16.7651 21.7755 16.2556 22.0274 15.523C22.0916 15.336 22.1453 15.148 22.1887 14.9609C22.3596 14.9959 22.5379 15.0144 22.7219 15.0144C23.7984 15.0144 24.3145 14.2744 24.4145 14.1141L24.858 13.3603L24.0362 13.0305C23.4653 12.7991 23.2068 12.2619 23.0908 11.7837C24.1513 11.6952 24.7211 10.8217 24.8948 10.2909ZM10.206 3.17906L10.1948 3.18179L10.2042 3.16985L10.206 3.17906Z" fill="white"/>
<path d="M12.6136 3.13403C11.7437 3.13494 11.0917 3.41322 10.9492 3.74033L12.6136 4.38166L14.278 3.74033C14.1364 3.41322 13.4845 3.13494 12.6136 3.13403Z" fill="white"/>
<path d="M12.6312 20.112H12.6293H12.6151H12.599H12.5981C12.0707 20.1157 11.3451 20.0097 10.9951 19.9102L10.5742 21.0223C10.8517 21.1191 11.7914 21.3034 12.6151 21.3034C13.4369 21.3034 14.3776 21.1182 14.654 21.0223L14.2341 19.9102C13.8832 20.0106 13.1585 20.1157 12.6312 20.112Z" fill="white"/>
<path d="M15.8136 19.0062C15.5004 19.1795 14.8012 19.4393 14.3945 19.56L14.7361 20.4787C15.3654 20.311 15.8843 20.1148 16.3137 19.9047L15.6051 19.6742L15.8136 19.0062Z" fill="white"/>
<path d="M9.41414 19.0061L9.62358 19.6741L8.91406 19.9045C9.34241 20.1146 9.86417 20.3108 10.4907 20.4786L10.8322 19.5599C10.4274 19.4392 9.72734 19.1784 9.41414 19.0061Z" fill="white"/>
<path d="M12.6141 2.07061C13.2698 2.07061 13.9133 2.22357 14.4077 2.49263C14.453 2.34428 14.5162 2.1646 14.6021 1.97662L14.4153 1.99874L14.2191 2.01899L14.136 1.84482L13.8859 1.32881L13.4302 1.56103L13.2529 1.64951L13.1113 1.5131L12.616 1.03394L12.1216 1.5131L11.98 1.64951L11.8027 1.56103L11.3441 1.32881L11.0969 1.84482L11.012 2.01899L10.8157 1.99874L10.6289 1.97662C10.7148 2.16551 10.7771 2.34428 10.8233 2.49263C11.3186 2.22357 11.9602 2.07061 12.6141 2.07061Z" fill="white"/>
<path d="M22.6248 8.03453C22.7098 8.06313 22.7966 8.07605 22.8825 8.07605C23.2532 8.07605 23.6118 7.84194 23.7354 7.57386C23.7354 7.57386 23.0551 7.53329 22.3239 6.80812C22.0909 6.57309 21.8446 6.50305 21.6332 6.50305C21.3049 6.50305 21.0586 6.67259 21.0586 6.67259C21.9418 7.13152 22.1219 7.86866 22.6248 8.03453Z" fill="white"/>
<path d="M2.34421 8.07593C2.43004 8.07593 2.51686 8.063 2.59992 8.0344C3.10467 7.86853 3.28582 7.1314 4.16899 6.67247C4.16899 6.67247 3.92173 6.50293 3.5953 6.50293C3.383 6.50293 3.13673 6.57296 2.90273 6.808C2.17248 7.53317 1.49219 7.57373 1.49219 7.57373C1.6139 7.84181 1.97338 8.07593 2.34421 8.07593Z" fill="white"/>
<path d="M22.8631 11.0299C22.8783 11.0309 22.8915 11.0309 22.9075 11.0309C23.8331 11.0309 24.1473 10.0624 24.1473 10.0624H24.1293C23.9595 10.0624 22.5829 10.0237 21.6101 8.81564C20.9695 8.02135 20.4449 7.32285 19.4079 7.04831L19.3061 7.0308L19.2834 6.92942C19.2551 6.77455 19.3636 6.6299 19.6099 6.47328C21.0403 5.55827 20.0693 4.39166 20.0693 4.39166C20.0693 4.39166 19.6608 5.32516 18.7466 5.32516C18.7248 5.32516 18.7012 5.32424 18.6786 5.32424C18.5749 5.31865 18.4748 5.31494 18.3738 5.29381L18.2049 5.26159C18.2049 5.26159 18.4654 4.56952 17.837 3.93371C17.3633 3.45364 16.7869 3.37256 16.4538 3.37256C16.2858 3.37256 16.1792 3.39371 16.1792 3.39371C16.4953 3.79736 16.7236 4.46632 16.3585 4.87911C16.0434 5.23386 15.2734 5.25141 15.2734 5.78028C15.2734 6.00423 15.4876 6.26593 15.8726 6.50088C17.0303 7.21317 18.1795 8.1577 18.6569 9.4238C19.2542 11.0032 18.5814 12.0509 17.621 12.6517C17.621 12.6517 17.9219 12.9226 18.3588 12.9567C18.4475 12.965 18.5343 12.9687 18.6154 12.9687C19.5372 12.9687 20.0137 12.5466 20.0137 12.5466C20.0137 12.5466 19.9354 13.13 19.4551 13.6718C19.0126 14.1721 18.4314 14.4661 17.5454 14.4789C17.5454 14.4789 17.5171 14.8807 17.9097 15.2281C18.1606 15.4474 18.7409 15.5193 18.7409 15.5193C18.7409 15.5193 17.6549 15.734 17.5351 17.3005C17.47 18.1492 17.2482 18.444 17.2482 18.444H17.2681C19.7882 18.444 19.7231 16.333 19.7231 16.333C19.7231 16.333 19.8986 16.9577 20.6015 17.1208C20.6864 17.1429 20.777 17.1512 20.8638 17.1512C21.0903 17.1512 21.2865 17.0996 21.2865 17.0996C21.2865 17.0996 20.9185 16.3412 21.2836 15.2807C21.5865 14.4006 21.5375 13.7483 21.5375 13.7483C21.5375 13.7483 21.8771 14.2496 22.7188 14.2541H22.7272C23.4283 14.2541 23.734 13.7353 23.734 13.7353C22.0536 13.0544 22.2197 10.8558 22.2197 10.8558C22.2197 10.8558 22.4376 11.0142 22.8631 11.0299ZM22.3574 13.3262C21.6743 12.9972 21.2421 12.1237 21.1374 11.8086C21.0242 13.5409 20.158 14.7434 19.1456 15.9007C18.6201 16.5007 18.4371 17.084 18.4371 17.084C18.4371 17.084 18.538 16.4232 18.9928 15.8851C19.9373 14.7766 20.8346 13.3971 20.9016 11.8021C20.9478 10.689 20.6543 9.78593 20.1968 9.04233C20.4524 9.81728 20.4166 10.7664 19.5476 11.6519C19.5476 11.6519 21.2771 9.6274 18.8588 7.55229C17.8908 6.76263 16.8321 6.27515 16.2868 5.92961C18.2569 6.55711 19.2183 5.86599 19.2183 5.86599C18.5889 6.39862 17.7747 6.38941 17.2699 6.31291C17.4067 6.37836 17.5493 6.44652 17.703 6.52673C19.3636 7.40764 20.8563 8.85708 21.111 10.865V10.8493C21.4978 12.8203 22.3574 13.3262 22.3574 13.3262Z" fill="white"/>
<path d="M6.48449 15.5193C6.48449 15.5193 7.06478 15.4483 7.31577 15.2281C7.70728 14.8807 7.68 14.4789 7.68 14.4789C6.79308 14.467 6.2128 14.1721 5.76747 13.6727C5.29095 13.1309 5.21172 12.5476 5.21172 12.5476C5.21172 12.5476 5.68815 12.9696 6.60906 12.9696C6.69212 12.9696 6.77797 12.9659 6.86663 12.9576C7.30351 12.9235 7.60543 12.6526 7.60543 12.6526C6.64487 12.0518 5.97127 11.0032 6.56755 9.4238C7.04594 8.15862 8.19415 7.21317 9.35193 6.50088C9.73686 6.26593 9.95101 6.00519 9.95101 5.78028C9.95101 5.25141 9.18204 5.23386 8.86687 4.87911C8.50181 4.46632 8.73107 3.79639 9.04619 3.39371C9.04619 3.39371 8.94144 3.37256 8.77253 3.37256C8.44044 3.37256 7.86393 3.45364 7.3903 3.93371C6.76002 4.56952 7.02141 5.26159 7.02141 5.26159L6.8525 5.29381C6.75158 5.31494 6.65056 5.31865 6.54773 5.32424C6.52418 5.32424 6.50338 5.32516 6.48076 5.32516C5.56461 5.32516 5.15795 4.39257 5.15795 4.39257C5.15795 4.39257 4.18704 5.55918 5.61647 6.47416C5.86275 6.63081 5.97034 6.77556 5.94203 6.93029L5.91932 7.03167L5.81555 7.04918C4.78052 7.32377 4.255 8.02227 3.61434 8.81651C2.64344 10.0228 1.26872 10.0624 1.09706 10.0624H1.07812C1.07812 10.0624 1.39235 11.0309 2.31793 11.0309C2.33304 11.0309 2.34624 11.0309 2.36227 11.0299C2.78779 11.0151 3.00668 10.8558 3.00668 10.8558C3.00668 10.8558 3.17088 13.0535 1.49236 13.7353C1.49236 13.7353 1.79808 14.2541 2.49909 14.2541H2.5076C3.35013 14.2496 3.68889 13.7483 3.68889 13.7483C3.68889 13.7483 3.63981 14.4006 3.94176 15.2807C4.30685 16.3412 3.94078 17.0996 3.94078 17.0996C3.94078 17.0996 4.13704 17.1512 4.36253 17.1512C4.45027 17.1512 4.53993 17.1429 4.62391 17.1208C5.32583 16.9577 5.5023 16.333 5.5023 16.333C5.5023 16.333 5.43813 18.444 7.95832 18.444H7.97618C7.97618 18.444 7.75545 18.1492 7.69128 17.3005C7.57054 15.734 6.48449 15.5193 6.48449 15.5193ZM6.07979 15.9007C5.06738 14.7434 4.20215 13.5409 4.08796 11.8086C3.98326 12.1228 3.55299 12.9972 2.86992 13.3262C2.86992 13.3262 3.72848 12.8203 4.11441 10.8493V10.865C4.37012 8.85804 5.86182 7.40764 7.5233 6.52673C7.67524 6.44565 7.81958 6.37745 7.95547 6.31291C7.45069 6.38941 6.63643 6.39862 6.00709 5.86599C6.00709 5.86599 6.96853 6.55711 8.93767 5.92961C8.39236 6.27515 7.33461 6.76263 6.36655 7.55229C3.94737 9.6274 5.67779 11.6519 5.67779 11.6519C4.8079 10.7655 4.77302 9.81728 5.02867 9.04233C4.57014 9.78685 4.27762 10.689 4.3248 11.8021C4.39083 13.3971 5.28811 14.7766 6.2307 15.8851C6.68647 16.4223 6.7893 17.084 6.7893 17.084C6.7893 17.084 6.6043 16.5007 6.07979 15.9007Z" fill="white"/>
<path d="M10.7493 7.801C10.7908 7.84436 10.8313 7.89129 10.8701 7.93831C10.8795 7.94936 10.8879 7.95953 10.8974 7.97246C10.9333 8.01939 10.9701 8.06917 11.005 8.11981C11.0125 8.12999 11.0201 8.14195 11.0286 8.15396C11.071 8.21661 11.1107 8.28106 11.1503 8.34742C11.5135 8.96021 12.0957 9.32605 12.6118 9.32697C13.1288 9.32605 13.7091 8.96021 14.0743 8.34742C14.1148 8.27927 14.1554 8.2129 14.1978 8.15116C14.2044 8.14195 14.2111 8.1337 14.2167 8.12444C14.2526 8.07196 14.2903 8.02031 14.33 7.97058C14.3384 7.95953 14.346 7.95032 14.3535 7.94111C14.3941 7.89225 14.4356 7.84435 14.4781 7.80008C14.4856 7.7927 14.4912 7.78628 14.4979 7.78078C14.6828 7.59553 14.9036 7.45454 15.1923 7.37621L15.064 7.30343H15.0565L14.545 7.01317L14.0195 6.71924L12.6156 7.46559L12.6118 7.46284L12.6089 7.46559L11.204 6.71924L10.6795 7.01225L10.1671 7.30251H10.1615L10.0312 7.3753C10.3209 7.45363 10.5407 7.59278 10.7266 7.77799C10.7351 7.78537 10.7408 7.79366 10.7493 7.801ZM12.0438 7.74114H12.6382H13.2317V8.1392C13.0921 7.97246 12.8203 8.00651 12.8203 8.00651V8.58058C12.8203 8.58058 12.8307 8.86254 12.9316 8.98515H12.6382H12.3438C12.4466 8.86351 12.4561 8.58058 12.4561 8.58058V8.00651C12.4561 8.00651 12.1853 7.97246 12.0438 8.1392V7.74114Z" fill="white"/>
<path d="M12.4917 6.96918V4.63883L10.9727 4.13574L11.3736 6.39425L12.4917 6.96918ZM12.1653 5.21106V5.58515L12.0917 5.55202C12.0879 5.54922 11.9804 5.52529 11.7916 5.37968C11.4803 5.14382 11.4746 4.92634 11.4746 4.92634L12.1653 5.21106Z" fill="white"/>
<path d="M13.8534 6.39425L14.2525 4.13574L12.7344 4.63883V6.96918L13.8534 6.39425ZM13.0609 5.21106L13.7515 4.92722C13.7515 4.92722 13.7459 5.14474 13.4335 5.38064C13.2458 5.52621 13.1373 5.55014 13.1335 5.55293L13.0599 5.58607V5.21106H13.0609Z" fill="white"/>
<path d="M10.3425 12.3718C10.4907 12.4243 10.67 12.4354 10.7615 12.4354C10.7653 12.4243 10.77 12.4105 10.7747 12.3939C10.7831 12.3672 10.7908 12.3414 10.7964 12.3119C10.8219 12.1829 10.8313 12.0364 10.8332 11.9423C10.7709 11.9046 10.6832 11.8373 10.6341 11.7369C10.5775 11.6208 10.4973 11.5674 10.3793 11.5674C10.2265 11.5674 10.0623 11.6568 9.99249 11.6991C9.9369 12.0207 10.1793 12.3128 10.3425 12.3718Z" fill="white"/>
<path d="M13.702 11.1348C13.4199 11.4343 12.8679 11.9559 12.8405 11.9826L12.8075 12.0157L11.063 11.989C11.062 12.1576 11.0337 12.3014 11.0064 12.4064C11.0017 12.4239 10.9969 12.4423 10.9922 12.4608L13.0679 12.8248C13.284 12.6773 13.8784 12.2535 14.1087 12.0876C13.9407 11.848 13.9246 11.5642 13.9624 11.3643C13.853 11.2951 13.769 11.2177 13.702 11.1348Z" fill="white"/>
<path d="M13.9387 9.08605C13.5367 9.47581 13.1508 9.61955 12.8064 9.65273C12.7441 9.65919 12.681 9.66291 12.6168 9.66291H12.612H12.6082C12.5441 9.66291 12.48 9.65919 12.4176 9.65273C12.3573 9.64719 12.2941 9.63797 12.2309 9.62418C12.2082 9.71167 12.1799 9.89505 12.261 10.0683C12.3337 10.2259 12.4819 10.3429 12.6979 10.4203L12.7705 10.4479L12.7715 10.5244C12.7715 10.5474 12.7885 11.0432 13.3423 11.1805C13.4329 11.0893 13.515 11.0073 13.5754 10.9391C13.4621 10.6793 13.5216 10.4138 13.6858 10.2839C13.6783 10.3115 13.6065 10.9621 14.1406 11.2036L14.2283 11.2441L14.2019 11.3353C14.1933 11.363 14.0151 11.9923 14.6614 12.2264L14.7755 12.2688L14.7246 12.3775C14.7133 12.4014 14.4595 12.9728 15.0568 13.2971H16.3521V12.2927C15.8918 12.2374 15.6964 11.8762 15.6464 11.6201C15.4323 11.5841 15.2662 11.4938 15.1529 11.3464C14.8812 10.9972 15.1152 10.6774 15.118 10.6599C15.1171 10.6627 15.118 11.0036 15.3332 11.2137C15.4398 11.3151 15.5662 11.3934 15.7577 11.4109L15.8521 11.4192L15.8606 11.5132C15.8624 11.5334 15.9144 11.9942 16.3531 12.067L16.3521 10.0158C16.3521 9.69788 16.4475 9.37814 16.5616 9.08325H13.9387V9.08605Z" fill="white"/>
<path d="M10.4529 10.0253L10.418 11.3318L10.5698 11.354L10.9416 10.1008L10.7529 9.71558L10.4529 10.0253Z" fill="white"/>
<path d="M14.5512 16.0178C14.5626 16.0178 14.5758 16.0196 14.5881 16.0224C14.8192 16.0868 14.8777 16.9014 15.2834 16.9743C15.3231 16.9825 15.3598 16.9844 15.3919 16.9844C15.5089 16.9844 15.5788 16.9355 15.6542 16.849C15.6542 16.849 15.4505 16.5356 15.2976 16.3246C15.0947 16.0482 14.9372 15.7137 14.5598 15.7137C14.5512 15.7137 14.5399 15.7137 14.5305 15.7146C14.406 15.7211 14.3295 15.78 14.3295 15.78C14.1767 15.6861 14.0342 15.6538 13.9049 15.6538C13.6681 15.6538 13.4842 15.7597 13.3926 15.7597H13.3888L12.5453 15.6787C12.4132 15.6667 12.3095 15.5368 12.2717 15.4861C12.2623 15.4723 12.2576 15.464 12.2576 15.464C12.2576 15.4418 12.2576 15.4188 12.2557 15.3986C12.2274 14.725 11.6934 14.4366 11.5037 14.4319C11.5037 14.4319 11.5263 14.3038 11.4744 14.255L11.2886 14.4752L10.6781 14.1758L11.1131 14.6725L10.7441 15.077C10.6979 15.123 10.7036 15.1857 10.7225 15.2115L10.8819 15.3488L11.0838 15.229C11.0942 15.2216 11.1121 15.2198 11.1348 15.2198C11.1904 15.2198 11.2744 15.2336 11.3499 15.2336C11.432 15.2336 11.5037 15.2161 11.5122 15.1405C11.4867 15.3903 11.2499 15.8243 11.4056 16.1652L11.5207 16.4223L10.7753 16.3173L10.4262 16.8931C10.3186 17.0848 10.3017 17.2922 10.4055 17.4046L10.5356 17.564C10.5356 17.564 10.7187 17.3742 10.7602 17.2498L10.7007 17.1862C10.6507 17.1328 10.6536 17.0848 10.6838 17.0268L10.9027 16.672L11.7829 16.8747L11.8292 16.7974C11.8886 16.7006 11.9745 16.6711 12.0689 16.6711C12.1075 16.6711 12.1472 16.6757 12.1887 16.6821C12.3519 16.7135 12.6208 16.7559 12.8897 16.7559C13.185 16.7559 13.4775 16.7043 13.6332 16.5338C13.9521 16.9954 14.5984 17.0692 14.5475 17.3032L14.3777 18.0939C14.49 18.0893 14.5984 18.0819 14.7013 18.068L14.8626 17.2451C14.8806 17.1558 14.8975 17.035 14.8975 17.035C14.8352 16.9733 14.6843 16.8425 14.5994 16.684C14.4852 16.4702 14.5475 16.3587 14.4409 16.0804C14.4446 16.0823 14.4767 16.0178 14.5512 16.0178ZM11.2584 14.8623C11.215 14.8614 11.1839 14.8254 11.1857 14.783C11.1895 14.7425 11.2244 14.7102 11.2668 14.7139C11.3102 14.7157 11.3414 14.7526 11.3395 14.7931C11.3357 14.8337 11.2999 14.8651 11.2584 14.8623Z" fill="white"/>
<path d="M10.059 16.7658C10.059 16.7658 10.3505 16.6487 10.3769 16.5649L10.3382 16.4699C10.3109 16.4082 10.3146 16.3409 10.3675 16.3041L10.6826 16.0912L11.2091 16.1898C11.2091 16.1898 11.1138 16.0737 11.1232 15.918L10.6213 15.8138L10.1476 16.0958C9.94476 16.2442 9.92965 16.4865 9.99667 16.6303L10.059 16.7658Z" fill="white"/>
<path d="M13.7812 18.1055C13.8756 18.1018 13.9794 18.0999 14.0936 18.0999C14.0936 18.0999 14.3644 17.3269 14.3794 17.302C14.2276 17.2366 13.9124 17.0734 13.7907 16.9988C13.8709 17.1159 14.0662 17.2504 14.0275 17.3536L13.7812 18.1055Z" fill="white"/>
<path d="M16.3561 13.521H8.87109V16.2706C8.87109 17.3948 9.70428 18.0988 10.9336 18.0988C11.9612 18.0988 12.2319 18.1375 12.6141 18.508C12.8773 18.2517 13.0953 18.1559 13.5425 18.12L13.5528 18.0777L13.7887 17.3654C13.7755 17.3497 13.3897 16.9211 13.3897 16.9211C13.2368 16.9709 13.1085 16.9792 12.8924 16.9792C12.6707 16.9792 12.4207 16.9544 12.1499 16.9046C12.1225 16.8981 12.097 16.8963 12.0715 16.8963C12.0385 16.8963 12.0357 16.8991 12.0272 16.9147L11.98 16.9903L11.8942 17.1285L11.7328 17.0926L11.0148 16.9277L10.9166 17.0861L10.9317 17.1027L11.0195 17.1967L10.9808 17.3193C10.928 17.4796 10.7562 17.6667 10.7044 17.7182L10.5251 17.9062L10.3619 17.7044L10.2392 17.5542C10.1099 17.4133 10.0798 17.1967 10.1524 16.97C10.1505 16.9719 10.1476 16.9728 10.1449 16.9728L9.94203 17.0548L9.85044 16.8613L9.78632 16.724C9.67598 16.4826 9.71646 16.1297 10.0138 15.9168L10.5921 15.598L11.1422 15.7039C11.1554 15.6523 11.1752 15.468 11.1912 15.421C11.1809 15.4201 11.1705 15.4174 11.1601 15.4174L10.8431 15.5325L10.5373 15.3261C10.5373 15.3261 10.4175 15.2137 10.526 15.1013L10.8223 14.6636L10.0722 13.744L11.2252 14.2065L11.3016 14.1134L11.4573 13.932L11.6337 14.0959C11.6837 14.143 11.712 14.201 11.7262 14.2591C12.0441 14.3798 12.6131 14.7364 12.6631 15.316L12.4848 15.386V15.3907C12.5254 15.4376 12.5593 15.457 12.5697 15.4588L13.3925 15.538C13.4132 15.5344 13.4397 15.5252 13.4689 15.5169C13.5708 15.4828 13.7246 15.4339 13.9067 15.4339C14.0548 15.4339 14.1982 15.4671 14.3359 15.5298C14.3869 15.5114 14.4492 15.4975 14.5209 15.4929L14.5605 15.492C15.0012 15.492 15.22 15.8136 15.3956 16.0697C15.4248 16.114 15.454 16.1564 15.4843 16.1978C15.638 16.4098 15.839 16.7203 15.8475 16.7332L15.9381 16.8714L15.8267 16.9976C15.7409 17.0944 15.6125 17.2077 15.3918 17.2077C15.3465 17.2077 15.2965 17.2032 15.2427 17.193C15.1956 17.1847 15.1531 17.1709 15.1116 17.1543C15.105 17.1967 15.0965 17.2474 15.0879 17.2907L14.9436 18.026C15.8069 17.8187 16.3551 17.182 16.3551 16.2715L16.3561 13.521Z" fill="#FFDD2D"/>
<path d="M8.87159 13.2996H14.6922C14.4015 13.0066 14.4054 12.6352 14.4799 12.3938C14.395 12.3541 14.3252 12.3062 14.2629 12.2546C14.0355 12.4186 13.3411 12.9125 13.1599 13.036L13.1213 13.0618L10.837 12.6582H10.7907C10.736 12.6582 10.6558 12.6564 10.5681 12.6462C10.5435 12.7467 10.4549 12.8158 10.3529 12.8158C10.3416 12.8158 10.3284 12.8149 10.3161 12.8121C10.2567 12.802 10.2049 12.7724 10.1699 12.7237C10.1341 12.6757 10.1199 12.6186 10.1303 12.5596L10.1388 12.5117C9.90289 12.3495 9.68589 11.9874 9.7821 11.6059L9.79152 11.5654L9.82459 11.5423C9.8293 11.5386 9.86889 11.5128 9.92742 11.4797L9.76135 11.4548C9.69909 11.4437 9.65759 11.3875 9.66705 11.3276C9.67741 11.2668 9.73589 11.2235 9.79721 11.2355L10.1925 11.2963L10.2284 9.93618L10.8172 9.32802L11.1842 10.0828L10.7964 11.3912L11.1455 11.4446C11.2068 11.4539 11.2493 11.5101 11.2399 11.5718C11.2304 11.6261 11.1833 11.664 11.1276 11.664C11.1219 11.664 11.1153 11.664 11.1096 11.663L10.8256 11.6179C10.8294 11.6261 10.835 11.6308 10.8389 11.64C10.869 11.7008 10.9361 11.745 10.9756 11.7635L12.7174 11.7902C12.791 11.7201 12.9741 11.5451 13.1618 11.3599C12.7335 11.2014 12.5778 10.8401 12.5513 10.6006C12.3117 10.501 12.1466 10.3518 12.0551 10.1573C11.9437 9.91688 11.9833 9.67635 12.0126 9.55934C11.7805 9.47638 11.5362 9.32531 11.287 9.08386H8.66406C8.77636 9.37875 8.87159 9.69849 8.87159 10.0164V13.2996Z" fill="#FFDD2D"/>
<path d="M11.2688 14.7139C11.2263 14.7102 11.1905 14.7424 11.1877 14.783C11.1848 14.8253 11.2169 14.8613 11.2603 14.8622C11.3018 14.8659 11.3386 14.8345 11.3424 14.7931C11.3424 14.7526 11.3122 14.7148 11.2688 14.7139Z" fill="black"/>
<path d="M16.3468 19.6996L15.9156 19.5384L16.0345 19.1035L16.1656 18.6289C16.1656 18.6289 15.4014 19.0334 14.3248 19.3375C14.0191 19.4232 13.788 19.4619 13.788 19.4619V19.7844C13.788 19.7844 13.2124 19.8821 12.6303 19.8821H12.6236H12.6152H12.6038H12.5972C12.0151 19.8821 11.4395 19.7844 11.4395 19.7844V19.4619C11.4395 19.4619 11.2074 19.4232 10.9027 19.3375C9.82608 19.0334 9.0628 18.6289 9.0628 18.6289L9.19202 19.1035L9.31374 19.5384L8.88162 19.6996L8.40234 19.8747C8.95241 20.1337 9.71378 20.5114 10.4111 20.6976L10.2469 21.1362C10.2469 21.1362 11.131 21.5297 12.6038 21.5333V21.5343H12.6086H12.6152H12.6209H12.6246V21.5333C14.0993 21.5297 14.9824 21.1362 14.9824 21.1362L14.8173 20.6976C15.5145 20.5114 16.2779 20.1337 16.8251 19.8747L16.3468 19.6996ZM8.9137 19.9042L9.62322 19.6738L9.41378 19.0057C9.72605 19.179 10.4272 19.4389 10.8328 19.5596L10.4904 20.4783C9.86381 20.3096 9.34205 20.1134 8.9137 19.9042ZM12.6152 21.303C11.7914 21.303 10.8508 21.1178 10.5743 21.0219L10.9951 19.9097C11.3442 20.0092 12.0707 20.1152 12.5981 20.1115H12.5991H12.6152H12.6293H12.6312C13.1587 20.1152 13.8832 20.0092 14.2343 19.9097L14.6541 21.0219C14.3777 21.1187 13.4379 21.303 12.6152 21.303ZM14.7381 20.4783L14.3966 19.5596C14.8032 19.4389 15.5023 19.179 15.8156 19.0057L15.6071 19.6738L16.3157 19.9042C15.8863 20.1134 15.3674 20.3096 14.7381 20.4783Z" fill="black"/>
<path d="M12.6145 2.33988C13.492 2.33988 14.194 2.62367 14.5818 2.92685C14.5818 2.92685 14.6969 2.24959 15.0903 1.65153L14.3836 1.72989L14.0138 0.962266L13.3033 1.31981L12.6145 0.654541L11.9277 1.31981L11.2163 0.962266L10.8473 1.72989L10.1406 1.65153C10.534 2.24959 10.6492 2.92685 10.6492 2.92685C11.0379 2.62367 11.738 2.33988 12.6145 2.33988ZM10.8152 1.99895L11.0115 2.01919L11.0964 1.84508L11.3436 1.32902L11.8022 1.56033L11.9796 1.6488L12.1211 1.51239L12.6155 1.03323L13.1108 1.51239L13.2524 1.6488L13.4297 1.56033L13.8855 1.32902L14.1355 1.84508L14.2185 2.01919L14.4148 1.99895L14.6016 1.97683C14.5157 2.16572 14.4525 2.34449 14.4072 2.49283C13.9128 2.22377 13.2693 2.07082 12.6136 2.07082C11.9607 2.07082 11.3181 2.22377 10.8218 2.49283C10.7757 2.34449 10.7134 2.16481 10.6275 1.97683L10.8152 1.99895Z" fill="black"/>
<path d="M22.9086 11.3266C24.0437 11.3266 24.423 10.1988 24.439 10.1508L24.5654 9.75369L24.1399 9.76657H24.138C23.988 9.76657 22.7359 9.73435 21.8481 8.63228L21.7641 8.52998C21.1839 7.80939 20.6338 7.12473 19.6506 6.81233C19.6789 6.78749 19.7195 6.75614 19.7752 6.72113C20.2969 6.38572 20.6008 5.97844 20.6772 5.50576C20.7885 4.79438 20.3243 4.22764 20.3036 4.20461L19.9875 3.82313L19.7903 4.27557C19.7771 4.30411 19.4449 5.02841 18.7467 5.02841H18.6948C18.6467 5.02561 18.6014 5.02378 18.5562 5.02011C18.5807 4.69667 18.5203 4.19631 18.0561 3.72733C17.4984 3.16242 16.8135 3.07764 16.455 3.07764C16.2634 3.07764 16.1361 3.10073 16.1228 3.10254L15.6454 3.19472L15.9398 3.5734C16.171 3.86549 16.3804 4.40459 16.1323 4.68654C16.053 4.77596 15.8898 4.84874 15.7331 4.92153C15.4114 5.06622 14.9727 5.26706 14.9727 5.77943C14.9727 6.11113 15.2359 6.45758 15.7133 6.75248C17.1268 7.62051 17.9985 8.52627 18.375 9.52603C18.9572 11.064 18.1976 11.9413 17.4598 12.4029L17.1286 12.6111L17.4183 12.871C17.4569 12.9042 17.8117 13.2092 18.3354 13.2534C18.4345 13.2598 18.5297 13.2654 18.6184 13.2654C18.9543 13.2654 19.2402 13.2138 19.4723 13.1447C19.4081 13.2543 19.3298 13.3658 19.2308 13.4782C18.809 13.9556 18.2901 14.173 17.5438 14.1841L17.2663 14.1887L17.2446 14.4605C17.2418 14.5149 17.2211 15.0189 17.7098 15.4474C17.7844 15.5138 17.8749 15.5682 17.9693 15.6133C17.6381 15.9045 17.3013 16.4113 17.2362 17.2802C17.1815 18.0054 17.0041 18.2736 17.0022 18.2764L16.6956 18.7334L17.2494 18.7407C18.1646 18.7407 18.8657 18.4938 19.3515 18.0054C19.6384 17.716 19.8026 17.3899 19.8998 17.1005C20.0592 17.2332 20.2649 17.3494 20.5328 17.4111C20.6347 17.4341 20.7461 17.447 20.8659 17.447C21.1244 17.447 21.3405 17.3936 21.365 17.388L21.7189 17.2959L21.5622 16.9734C21.5509 16.9476 21.2556 16.3007 21.5735 15.3774C21.7103 14.9784 21.7801 14.6209 21.8141 14.3426C22.0368 14.4559 22.335 14.5499 22.7208 14.5509C23.5964 14.5509 23.9823 13.9123 24.0003 13.8855L24.1729 13.5925L23.8531 13.4635C22.8096 13.0405 22.5784 11.9044 22.5321 11.2888C22.6265 11.3063 22.7341 11.323 22.8557 11.3266H22.9086ZM23.7361 13.7353C23.7361 13.7353 23.4303 14.2541 22.7293 14.2541H22.7208C21.8792 14.2495 21.5396 13.7482 21.5396 13.7482C21.5396 13.7482 21.5886 14.4006 21.2848 15.2807C20.9197 16.3412 21.2877 17.0996 21.2877 17.0996C21.2877 17.0996 21.0914 17.1512 20.865 17.1512C20.7782 17.1512 20.6876 17.1429 20.6027 17.1208C19.8998 16.9577 19.7243 16.333 19.7243 16.333C19.7243 16.333 19.7893 18.444 17.2692 18.444H17.2494C17.2494 18.444 17.4711 18.1492 17.5371 17.3005C17.657 15.734 18.743 15.5193 18.743 15.5193C18.743 15.5193 18.1636 15.4483 17.9127 15.2281C17.5201 14.8807 17.5475 14.479 17.5475 14.479C18.4345 14.467 19.0147 14.1721 19.4572 13.6717C19.9365 13.1299 20.0158 12.5466 20.0158 12.5466C20.0158 12.5466 19.5393 12.9687 18.6175 12.9687C18.5364 12.9687 18.4496 12.965 18.3608 12.9567C17.9249 12.9226 17.623 12.6517 17.623 12.6517C18.5825 12.0509 19.2563 11.0023 18.659 9.42286C18.1807 8.15773 17.0314 7.21228 15.8747 6.50003C15.4897 6.26499 15.2755 6.00425 15.2755 5.77943C15.2755 5.25052 16.0455 5.23388 16.3616 4.87826C16.7257 4.46537 16.4974 3.7955 16.1813 3.39282C16.1813 3.39282 16.2879 3.37161 16.4559 3.37161C16.7889 3.37161 17.3654 3.4536 17.8391 3.93276C18.4684 4.56857 18.207 5.2606 18.207 5.2606L18.3759 5.29287C18.4769 5.31409 18.5769 5.31775 18.6807 5.32238C18.7034 5.32238 18.726 5.3233 18.7486 5.3233C19.6629 5.3233 20.0715 4.3898 20.0715 4.3898C20.0715 4.3898 21.0433 5.55733 19.6129 6.47143C19.3666 6.62804 19.2581 6.77278 19.2864 6.92756L19.3091 7.02894L19.411 7.04645C20.4479 7.32099 20.9725 8.01949 21.6131 8.81378C22.5859 10.0218 23.9625 10.0605 24.1323 10.0605H24.1503C24.1503 10.0605 23.8361 11.029 22.9105 11.029C22.8954 11.029 22.8822 11.029 22.8661 11.0281C22.4406 11.0134 22.2227 10.8539 22.2227 10.8539C22.2227 10.8539 22.0557 13.0535 23.7361 13.7353Z" fill="black"/>
<path d="M20.9125 6.93432C21.3361 7.1545 21.5824 7.44939 21.7984 7.71114C22.0107 7.96639 22.2127 8.21233 22.5277 8.31463C22.64 8.35244 22.7589 8.36995 22.8797 8.36995C23.3533 8.36995 23.8289 8.08702 24.0091 7.69542L24.1902 7.30286L23.7515 7.2771C23.7307 7.27614 23.1665 7.22637 22.5382 6.59886C22.2796 6.34183 21.9673 6.2063 21.6305 6.2063C21.2191 6.2063 20.9143 6.40719 20.8804 6.42749L20.4766 6.70487L20.9125 6.93432ZM21.6314 6.50307C21.8428 6.50307 22.089 6.57306 22.3221 6.80804C23.0533 7.53327 23.7336 7.57378 23.7336 7.57378C23.61 7.84104 23.2515 8.07598 22.8806 8.07598C22.7948 8.07598 22.7089 8.0631 22.6231 8.03454C22.1202 7.86867 21.9399 7.13149 21.0559 6.67261C21.0559 6.67261 21.3031 6.50307 21.6314 6.50307Z" fill="black"/>
<path d="M21.1133 10.8493V10.8641C20.8586 8.85711 19.3659 7.40763 17.7053 6.52575C17.5515 6.44559 17.41 6.37744 17.2722 6.31199C17.7779 6.38844 18.5922 6.39765 19.2206 5.86511C19.2206 5.86511 18.2591 6.55619 16.2891 5.92868C16.8345 6.27422 17.894 6.7617 18.8611 7.55137C21.2794 9.62647 19.5489 11.651 19.5489 11.651C20.4179 10.7654 20.4538 9.81636 20.1981 9.04141C20.6557 9.78501 20.9482 10.688 20.9029 11.8012C20.8359 13.3962 19.9386 14.7756 18.9941 15.8842C18.5403 16.4223 18.4385 17.083 18.4385 17.083C18.4385 17.083 18.6214 16.4997 19.147 15.8998C20.1594 14.7425 21.0246 13.54 21.1378 11.8076C21.2426 12.1219 21.6737 12.9963 22.3578 13.3252C22.3597 13.3262 21.5001 12.8203 21.1133 10.8493Z" fill="black"/>
<path d="M8.22619 18.2756C8.22526 18.2728 8.04977 18.0047 7.9932 17.2795C7.92716 16.4105 7.5912 15.9037 7.25911 15.6126C7.35537 15.5683 7.44402 15.514 7.51859 15.4467C8.0064 15.0182 7.9856 14.5141 7.98275 14.4598L7.96391 14.1879L7.68461 14.1833C6.94022 14.1714 6.42028 13.9539 5.99855 13.4775C5.90043 13.3651 5.82119 13.2536 5.75702 13.1439C5.98908 13.213 6.27309 13.2646 6.60994 13.2646C6.70055 13.2646 6.79397 13.2591 6.89302 13.2527C7.41664 13.2085 7.77145 12.9044 7.81104 12.8703L8.10069 12.6104L7.76954 12.4022C7.02887 11.9396 6.27216 11.0624 6.85338 9.5253C7.22982 8.52554 8.1007 7.61978 9.51599 6.75174C9.99345 6.45685 10.2547 6.1104 10.2547 5.7787C10.2547 5.26633 9.81698 5.06453 9.49524 4.92079C9.33859 4.84801 9.17541 4.77523 9.09618 4.68581C8.84705 4.40476 9.05742 3.86476 9.28766 3.57267L9.58394 3.19392L9.10462 3.10181C9.09049 3.09993 8.96499 3.0769 8.77253 3.0769C8.41395 3.0769 7.73088 3.16168 7.17227 3.72653C6.70713 4.19648 6.64585 4.69685 6.6694 5.01938C6.62412 5.02305 6.57884 5.02488 6.53164 5.02768H6.48071C5.78062 5.02768 5.44946 4.30338 5.43626 4.27484L5.239 3.8224L4.9201 4.20388C4.90219 4.2269 4.43611 4.79452 4.54933 5.50503C4.6248 5.97771 4.92859 6.38498 5.45035 6.72039C5.50696 6.75541 5.5466 6.78676 5.57491 6.8116C4.59273 7.124 4.04359 7.80958 3.4633 8.53017L3.37932 8.63247C2.49245 9.73453 1.23754 9.76675 1.08752 9.76675L0.660156 9.75383L0.790321 10.151C0.805426 10.199 1.18378 11.3268 2.31974 11.3268L2.3745 11.3249C2.49431 11.3212 2.6019 11.3056 2.69815 11.2872C2.65092 11.9018 2.41976 13.038 1.37529 13.4618L1.05639 13.5909L1.2291 13.8839C1.24605 13.9106 1.63291 14.5491 2.51034 14.5491C2.89343 14.5483 3.19156 14.4543 3.4152 14.3409C3.44918 14.6192 3.51898 14.9768 3.6558 15.3757C3.97379 16.2991 3.67751 16.9459 3.66616 16.9717L3.50954 17.2942L3.86434 17.3864C3.88789 17.3919 4.10586 17.4453 4.36342 17.4453C4.48421 17.4453 4.59557 17.4324 4.6956 17.4094C4.9645 17.3477 5.17203 17.2315 5.32956 17.0989C5.42582 17.3882 5.59095 17.7144 5.87688 18.0038C6.36366 18.4921 7.06375 18.7391 7.97902 18.7391L8.5338 18.7317L8.22619 18.2756ZM7.95822 18.4442C5.43808 18.4442 5.5023 16.3332 5.5023 16.3332C5.5023 16.3332 5.32681 16.9579 4.62387 17.1209C4.53989 17.1431 4.45023 17.1514 4.36249 17.1514C4.13607 17.1514 3.94074 17.0998 3.94074 17.0998C3.94074 17.0998 4.30682 16.3414 3.94166 15.2808C3.63977 14.4008 3.68885 13.7484 3.68885 13.7484C3.68885 13.7484 3.35009 14.2497 2.50756 14.2543H2.49905C1.79804 14.2543 1.49233 13.7355 1.49233 13.7355C3.17177 13.0545 3.00664 10.8559 3.00664 10.8559C3.00664 10.8559 2.78873 11.0144 2.36223 11.0301C2.34712 11.0311 2.333 11.0311 2.3179 11.0311C1.39132 11.0311 1.07809 10.0626 1.07809 10.0626H1.09696C1.26776 10.0626 2.64248 10.0239 3.61523 8.8158C4.25588 8.02156 4.78141 7.32397 5.81644 7.04842L5.9202 7.03091L5.94291 6.92958C5.97122 6.77475 5.86363 6.6301 5.6174 6.47344C4.18701 5.55838 5.15883 4.39186 5.15883 4.39186C5.15883 4.39186 5.56549 5.32436 6.48165 5.32436C6.50427 5.32436 6.52506 5.32344 6.54862 5.32344C6.65145 5.31794 6.75339 5.31423 6.85338 5.29305L7.02229 5.26078C7.02229 5.26078 6.7609 4.56875 7.39118 3.933C7.86486 3.45287 8.44132 3.37178 8.77341 3.37178C8.94233 3.37178 9.04707 3.39299 9.04707 3.39299C8.73195 3.79659 8.50363 4.46555 8.86776 4.8784C9.18292 5.23315 9.95189 5.25066 9.95189 5.77957C9.95189 6.00351 9.73774 6.26518 9.35281 6.50016C8.19504 7.21246 7.04589 8.15791 6.56844 9.42305C5.97215 11.0024 6.64487 12.0502 7.60631 12.6518C7.60631 12.6518 7.30439 12.9228 6.86756 12.9569C6.77886 12.9651 6.693 12.9689 6.60994 12.9689C5.68908 12.9689 5.2126 12.5468 5.2126 12.5468C5.2126 12.5468 5.29183 13.1301 5.76836 13.6719C6.21368 14.1723 6.79397 14.4672 7.68088 14.4792C7.68088 14.4792 7.70919 14.8809 7.31666 15.2283C7.06478 15.4476 6.48538 15.5195 6.48538 15.5195C6.48538 15.5195 7.57236 15.7342 7.69123 17.3007C7.75634 18.1493 7.97618 18.4442 7.97618 18.4442H7.95822Z" fill="black"/>
<path d="M2.34383 8.37033C2.46555 8.37033 2.58443 8.35282 2.69666 8.31506C3.01371 8.21276 3.21466 7.96672 3.42696 7.71148C3.64401 7.44982 3.88837 7.15497 4.31197 6.93474L4.74792 6.70622L4.34311 6.42883C4.30914 6.40761 4.00533 6.20764 3.59492 6.20764C3.25715 6.20764 2.94391 6.34221 2.6863 6.6002C2.05792 7.22684 1.49465 7.27748 1.47387 7.2784L1.03516 7.30329L1.21539 7.69677C1.39648 8.08653 1.87108 8.37033 2.34383 8.37033ZM2.90236 6.80842C3.13635 6.57348 3.38263 6.50345 3.59492 6.50345C3.92135 6.50345 4.16855 6.67299 4.16855 6.67299C3.28545 7.13283 3.10429 7.86905 2.59948 8.03492C2.51648 8.06352 2.42967 8.07645 2.34383 8.07645C1.97301 8.07645 1.61445 7.84233 1.49181 7.57416C1.49181 7.57329 2.17112 7.53273 2.90236 6.80842Z" fill="black"/>
<path d="M4.32696 11.8021C4.27979 10.689 4.57231 9.78598 5.03082 9.04238C4.77512 9.81733 4.81005 10.7665 5.67999 11.652C5.67999 11.652 3.94954 9.62754 6.3687 7.55234C7.33681 6.76268 8.39544 6.2752 8.93986 5.92966C6.97072 6.55716 6.00923 5.86609 6.00923 5.86609C6.6376 6.39872 7.45191 6.38946 7.95767 6.31205C7.82084 6.3775 7.67739 6.4457 7.52545 6.52586C5.86303 7.40769 4.37129 8.85717 4.11559 10.8641V10.8484C3.72972 12.8194 2.87109 13.3253 2.87109 13.3253C3.55423 12.9964 3.9845 12.1228 4.0892 11.8076C4.20339 13.54 5.06855 14.7426 6.08096 15.8999C6.6065 16.4998 6.79145 17.0831 6.79145 17.0831C6.79145 17.0831 6.68862 16.4224 6.2329 15.8842C5.2903 14.7776 4.393 13.3972 4.32696 11.8021Z" fill="black"/>
<path d="M12.0469 7.74121V8.13927C12.1875 7.97249 12.4592 8.00654 12.4592 8.00654V8.5806C12.4592 8.5806 12.4498 8.86257 12.3469 8.98517H12.6413H12.9347C12.8338 8.86358 12.8234 8.5806 12.8234 8.5806V8.00654C12.8234 8.00654 13.0951 7.97249 13.2348 8.13927V7.74121H12.6413H12.0469Z" fill="black"/>
<path d="M11.7935 5.38058C11.9813 5.52615 12.0898 5.55017 12.0936 5.55287L12.1672 5.5861V5.21105L11.4766 4.92725C11.4766 4.92816 11.4831 5.14468 11.7935 5.38058Z" fill="black"/>
<path d="M13.4352 5.38058C13.7475 5.14468 13.7531 4.92725 13.7531 4.92725L13.0625 5.21105V5.5861L13.1351 5.55287C13.1399 5.55017 13.2474 5.52615 13.4352 5.38058Z" fill="black"/>
<path d="M14.6786 3.85369C14.6786 3.28514 13.6982 2.77368 12.616 2.77368H12.6151H12.6123H12.6094C11.5272 2.77368 10.5469 3.28514 10.5469 3.85369L10.5686 3.99374L11.0007 6.41626L10.5668 6.66229L9.44391 7.30272H9.44774C9.44774 7.30272 9.19488 7.42895 9.07782 7.50723C8.65046 7.79754 8.55989 8.22049 8.80799 8.39557C8.86936 8.05095 9.14862 7.68969 9.67131 7.68969C10.0478 7.68969 10.3346 7.87958 10.5668 8.16425C10.6262 8.23616 10.6828 8.31261 10.7356 8.39557C10.8007 8.4997 10.8658 8.59091 10.9309 8.67937H8.03906C8.25135 9.09678 8.45323 9.53911 8.45323 10.0192V16.2704C8.45323 17.7834 9.64491 18.5059 10.9337 18.5059C11.9301 18.5059 12.0641 18.4617 12.6142 18.9961C13.1614 18.4608 13.2954 18.5059 14.2927 18.5059C15.5825 18.5059 16.7723 17.7834 16.7723 16.2704V10.0192C16.7723 9.53911 16.9742 9.09678 17.1874 8.67937H14.2946C14.3587 8.59188 14.4238 8.4997 14.4889 8.39557C14.5427 8.31261 14.5984 8.23616 14.6569 8.16425C14.8909 7.87862 15.1767 7.68969 15.5532 7.68969C16.0759 7.68969 16.3543 8.05003 16.4165 8.39557C16.6647 8.22049 16.5751 7.79754 16.1448 7.50723C16.0297 7.42895 15.7768 7.30272 15.7768 7.30272H15.7806L14.6578 6.66229L14.2257 6.41626L14.6578 3.99374L14.6786 3.85369ZM10.9724 4.13566L12.4915 4.63875V6.9691L11.3735 6.39325L10.9724 4.13566ZM11.2866 9.08573C11.5358 9.3281 11.7801 9.47834 12.0122 9.5612C11.982 9.67822 11.9424 9.91967 12.0547 10.1602C12.1462 10.3537 12.3122 10.5029 12.5509 10.6025C12.5774 10.8421 12.7321 11.2024 13.1614 11.3618C12.9737 11.547 12.7906 11.7211 12.7161 11.792L10.9752 11.7653C10.9356 11.746 10.8686 11.7027 10.8385 11.641C10.8347 11.6327 10.829 11.6281 10.8262 11.6189L11.1102 11.664C11.1168 11.665 11.1224 11.665 11.1281 11.665C11.1829 11.665 11.2309 11.6281 11.2404 11.5728C11.2498 11.5111 11.2074 11.4549 11.1461 11.4456L10.797 11.3922L11.1847 10.0846L10.8177 9.32988L10.229 9.93809L10.1931 11.2982L9.79778 11.2373C9.73641 11.2254 9.67793 11.2696 9.66758 11.3295C9.65811 11.3894 9.69962 11.4456 9.76187 11.4566L9.92794 11.4816C9.86853 11.5147 9.82987 11.5405 9.82511 11.5442L9.79111 11.5672L9.78169 11.6078C9.68548 11.9893 9.90341 12.3514 10.1384 12.5136L10.1299 12.5615C10.1205 12.6205 10.1337 12.6776 10.1695 12.7255C10.2035 12.7744 10.2563 12.8039 10.3148 12.814C10.3271 12.8158 10.3402 12.8167 10.3516 12.8167C10.4535 12.8167 10.5422 12.7477 10.5677 12.6472C10.6554 12.6574 10.7356 12.6592 10.7903 12.6592H10.8366L13.1208 13.0619L13.1595 13.037C13.3416 12.9126 14.0351 12.4187 14.2625 12.2556C14.3247 12.3081 14.3946 12.356 14.4795 12.3956C14.4059 12.6371 14.4012 13.0084 14.6927 13.3014H8.87123V10.0201C8.87123 9.70223 8.77595 9.38245 8.66365 9.08756H11.2866V9.08573ZM14.1096 12.0879C13.8785 12.2537 13.2841 12.6776 13.0689 12.825L10.9932 12.4611C10.998 12.4427 11.0026 12.4251 11.0074 12.4067C11.0347 12.3017 11.0621 12.1579 11.064 11.9893L12.8085 12.017L12.8415 11.9838C12.868 11.9579 13.4209 11.4364 13.703 11.136C13.77 11.218 13.8539 11.2964 13.9634 11.3654C13.9256 11.5644 13.9417 11.8483 14.1096 12.0879ZM10.6347 11.7368C10.6837 11.8372 10.7724 11.9045 10.8337 11.9423C10.8318 12.0363 10.8224 12.1828 10.797 12.3118C10.7913 12.3404 10.7838 12.3671 10.7752 12.3938C10.7706 12.4104 10.7658 12.4242 10.762 12.4353C10.6705 12.4353 10.4903 12.4242 10.3431 12.3717C10.1799 12.3128 9.93648 12.0206 9.99305 11.6991C10.0638 11.6566 10.2271 11.5672 10.3799 11.5672C10.4979 11.5663 10.578 11.6207 10.6347 11.7368ZM10.4186 11.3323L10.4535 10.0265L10.7535 9.71603L10.9423 10.1012L10.5705 11.3544L10.4186 11.3323ZM14.0908 18.1013C13.9775 18.1013 13.8728 18.1032 13.7785 18.1069L14.0257 17.3559C14.0644 17.2518 13.869 17.1182 13.7888 17.0011C13.9105 17.0758 14.2257 17.2389 14.3776 17.3043C14.3616 17.3283 14.0908 18.1013 14.0908 18.1013ZM14.8663 17.2481L14.705 18.07C14.6022 18.0838 14.4927 18.0912 14.3804 18.0958L14.5503 17.3052C14.6012 17.0703 13.9549 16.9975 13.636 16.5358C13.4803 16.7072 13.1869 16.7579 12.8925 16.7579C12.6236 16.7579 12.3547 16.7155 12.1914 16.6842C12.1499 16.6777 12.1103 16.6731 12.0716 16.6731C11.9773 16.6731 11.8914 16.7017 11.832 16.7993L11.7848 16.8768L10.9045 16.674L10.6856 17.0279C10.6545 17.085 10.6526 17.1338 10.7026 17.1873L10.762 17.2508C10.7214 17.3762 10.5384 17.565 10.5384 17.565L10.4073 17.4057C10.3035 17.2923 10.3205 17.0859 10.429 16.8943L10.7781 16.3183L11.5235 16.4234L11.4074 16.1654C11.2517 15.8244 11.4886 15.3904 11.514 15.1407C11.5055 15.2163 11.4347 15.2328 11.3517 15.2328C11.2763 15.2328 11.1923 15.2191 11.1366 15.2191C11.1149 15.2191 11.096 15.2209 11.0857 15.2283L10.8837 15.348L10.7243 15.2108C10.7054 15.184 10.6988 15.1223 10.746 15.0762L11.1149 14.6726L10.6791 14.1759L11.2895 14.4754L11.4753 14.2551C11.5263 14.304 11.5046 14.4321 11.5046 14.4321C11.6952 14.4367 12.2292 14.7251 12.2575 15.3978C12.2594 15.4181 12.2594 15.4411 12.2594 15.4632C12.2594 15.4632 12.2642 15.4715 12.2736 15.4853C12.3113 15.536 12.4151 15.6659 12.5471 15.6779L13.3907 15.759H13.3944C13.4869 15.759 13.6709 15.653 13.9068 15.653C14.0351 15.653 14.1785 15.6853 14.3314 15.7793C14.3314 15.7793 14.4078 15.7203 14.5323 15.7138C14.5417 15.713 14.5522 15.713 14.5616 15.713C14.94 15.713 15.0966 16.0465 15.2994 16.3238C15.4523 16.5348 15.6561 16.8482 15.6561 16.8482C15.5806 16.9357 15.5107 16.9836 15.3938 16.9836C15.3617 16.9836 15.3249 16.9808 15.2853 16.9735C14.8795 16.9007 14.8211 16.0861 14.5899 16.0216C14.5777 16.0179 14.5645 16.017 14.5531 16.017C14.4785 16.017 14.4456 16.0815 14.4456 16.0815C14.5512 16.3589 14.4899 16.4713 14.6031 16.6851C14.688 16.8435 14.8389 16.9744 14.9012 17.0361C14.9012 17.038 14.8843 17.1578 14.8663 17.2481ZM10.3365 16.4703L10.3752 16.5653C10.3497 16.6482 10.0573 16.7662 10.0573 16.7662L9.99398 16.6316C9.92701 16.4879 9.94114 16.2455 10.145 16.0972L10.6186 15.8152L11.1206 15.9193C11.1111 16.0751 11.2064 16.1912 11.2064 16.1912L10.6799 16.0926L10.3648 16.3054C10.312 16.3414 10.3082 16.4086 10.3365 16.4703ZM14.9456 18.0249L15.09 17.2896C15.0975 17.2462 15.1069 17.1956 15.1135 17.1532C15.1541 17.1698 15.1975 17.1836 15.2447 17.1919C15.2984 17.202 15.3484 17.2066 15.3938 17.2066C15.6146 17.2066 15.7429 17.0933 15.8287 16.9966L15.9401 16.8702L15.8495 16.7321C15.841 16.7182 15.641 16.4086 15.4863 16.1967C15.456 16.1552 15.4267 16.1137 15.3976 16.0686C15.2221 15.8125 15.0022 15.4908 14.5616 15.4908L14.522 15.4918C14.4493 15.4964 14.3871 15.5102 14.3371 15.5287C14.1983 15.4651 14.0558 15.4328 13.9077 15.4328C13.7256 15.4328 13.5718 15.4816 13.4699 15.5157C13.4407 15.524 13.4143 15.5332 13.3935 15.537L12.5698 15.4577C12.5594 15.4558 12.5255 15.4365 12.4849 15.3885V15.3849L12.6632 15.3148C12.6132 14.7353 12.0433 14.3787 11.7254 14.2579C11.7112 14.1999 11.6829 14.1418 11.6329 14.0949L11.4555 13.9308L11.2998 14.1133L11.2234 14.2063L10.0705 13.7437L10.8205 14.6634L10.5243 15.1011C10.4158 15.2135 10.5356 15.3259 10.5356 15.3259L10.8413 15.5314L11.1583 15.4162C11.1696 15.4162 11.1791 15.419 11.1894 15.4199C11.1744 15.4669 11.1546 15.6512 11.1413 15.7028L10.5912 15.5968L10.0129 15.9156C9.71566 16.1285 9.67508 16.4814 9.78552 16.7228L9.84964 16.8602L9.94114 17.0536L10.1431 16.9716C10.1459 16.9708 10.1488 16.9698 10.1506 16.968C10.078 17.1947 10.1073 17.4103 10.2374 17.5522L10.3601 17.7033L10.5233 17.9051L10.7026 17.7171C10.7554 17.6655 10.9262 17.4785 10.9791 17.3181L11.0177 17.1956L10.93 17.1016L10.9158 17.085L11.014 16.9265L11.7319 17.0914L11.8933 17.1274L11.9792 16.9892L12.0264 16.9136C12.0348 16.898 12.0376 16.8952 12.0707 16.8952C12.0962 16.8952 12.1216 16.898 12.149 16.9035C12.4198 16.9532 12.6698 16.9781 12.8915 16.9781C13.1067 16.9781 13.235 16.9698 13.3888 16.92C13.3888 16.92 13.7747 17.3476 13.7879 17.3642L13.552 18.0755L13.5416 18.1189C13.0944 18.1539 12.8765 18.2497 12.6132 18.5068C12.2311 18.1364 11.9603 18.0977 10.9328 18.0977C9.70339 18.0977 8.87029 17.3937 8.87029 16.2695V13.5207H16.3543L16.3562 16.2695C16.3571 17.1817 15.8089 17.8176 14.9456 18.0249ZM16.5637 9.08573C16.4496 9.38062 16.3543 9.70035 16.3543 10.0183L16.3553 12.0694C15.9165 11.9976 15.8646 11.5359 15.8627 11.5157L15.8542 11.4217L15.7599 11.4134C15.5693 11.3959 15.4428 11.3166 15.3362 11.2152C15.1211 11.0052 15.1201 10.6642 15.1211 10.6615C15.1183 10.679 14.8843 10.9987 15.156 11.3479C15.2701 11.4954 15.4353 11.5857 15.6495 11.6216C15.6995 11.8778 15.8948 12.239 16.3553 12.2942V13.2987H15.0607C14.4634 12.9743 14.7163 12.4031 14.7286 12.379L14.7795 12.2703L14.6654 12.228C14.019 11.9939 14.1965 11.3636 14.2059 11.3369L14.2323 11.2448L14.1445 11.2042C13.6105 10.9628 13.6832 10.3113 13.6898 10.2846C13.5256 10.4145 13.4661 10.6799 13.5794 10.9397C13.518 11.0079 13.436 11.0909 13.3463 11.1812C12.7934 11.0439 12.7765 10.5472 12.7765 10.5242L12.7755 10.4477L12.7029 10.42C12.4868 10.3417 12.3386 10.2246 12.266 10.0671C12.1839 9.89295 12.2131 9.71048 12.2358 9.62299C12.299 9.63678 12.3622 9.64691 12.4226 9.6515C12.4849 9.658 12.549 9.66167 12.6132 9.66167H12.617H12.6217C12.6859 9.66167 12.7491 9.658 12.8114 9.6515C13.1557 9.61836 13.5416 9.47371 13.9436 9.08486H16.5637V9.08573ZM14.5465 7.01246L15.0579 7.30272H15.0654L15.1938 7.3755C14.905 7.45388 14.6843 7.59482 14.4993 7.78003C14.4927 7.78557 14.4862 7.79291 14.4795 7.79942C14.437 7.84365 14.3946 7.8915 14.355 7.94035C14.3474 7.94957 14.3399 7.9597 14.3314 7.96987C14.2917 8.0196 14.255 8.07029 14.2191 8.12373C14.2134 8.13295 14.2068 8.14216 14.2002 8.15045C14.1577 8.21219 14.1172 8.27856 14.0766 8.34676C13.7124 8.9595 13.1312 9.3253 12.6142 9.32626C12.0981 9.3253 11.5169 8.9595 11.1526 8.34676C11.113 8.28039 11.0734 8.2159 11.0309 8.15325C11.0224 8.14124 11.0149 8.12923 11.0074 8.1191C10.9715 8.06846 10.9356 8.01873 10.8988 7.9717C10.8894 7.95878 10.8809 7.94865 10.8715 7.93765C10.8318 7.89058 10.7913 7.84365 10.7507 7.80029C10.7422 7.79382 10.7366 7.78557 10.7281 7.7782C10.5422 7.59298 10.3223 7.45287 10.0327 7.3755L10.1629 7.30272H10.1685L10.6799 7.01246L11.2055 6.71848L12.6094 7.46488L12.6123 7.46208L12.616 7.46488L14.02 6.71848L14.5465 7.01246ZM13.8539 6.39417L12.7349 6.97002V4.63875L14.2531 4.13566L13.8539 6.39417ZM12.6132 4.38261L10.9488 3.74031C11.0904 3.41319 11.7433 3.13492 12.6132 3.13401C13.4841 3.13492 14.137 3.41319 14.2776 3.74031L12.6132 4.38261Z" fill="black"/>
<path d="M33.2241 14.1349V10.4452H35.4401V9.10254H29.3945V10.4452H31.6105V14.1349H33.2241ZM37.6995 9.10254H36.0859V14.1349H37.6995V9.10254ZM38.8802 9.10254V14.1349H40.3648V11.3544L43.1294 14.1349H44.5063V9.10254H43.0217V11.8619L40.3217 9.10254H38.8802ZM47.6778 12.2319L49.5386 14.1349H51.6148L49.0223 11.513L51.5178 9.10254H49.56L47.6778 10.995H47.2474V9.10254H45.6875V14.1349H47.2474V12.2319H47.6778ZM54.8243 8.96509C52.7266 8.96509 51.4679 10.128 51.4679 11.6292C51.4679 13.1305 52.7266 14.2934 54.8243 14.2934C56.9117 14.2934 58.1699 13.1305 58.1699 11.6292C58.1699 10.128 56.9117 8.96509 54.8243 8.96509ZM54.8243 13.0671C53.781 13.0671 53.1137 12.4539 53.1137 11.6292C53.1137 10.8047 53.781 10.202 54.8243 10.202C55.8572 10.202 56.5349 10.8047 56.5349 11.6292C56.5349 12.4539 55.8572 13.0671 54.8243 13.0671ZM64.0852 9.10254H58.9109V14.1349H60.4704V12.3799H63.8594V11.2698H60.4704V10.3818H64.0852V9.10254ZM69.9575 9.10254H64.7828V14.1349H66.3428V12.3799H69.7318V11.2698H66.3428V10.3818H69.9575V9.10254Z" fill="black"/>
</g>
<defs>
<clipPath id="clip0_10699_115675">
<rect width="70" height="22" fill="white"/>
</clipPath>
</defs>
</svg>
