<svg width="35" height="12" viewBox="0 0 35 12" fill="none" xmlns="http://www.w3.org/2000/svg">
<g clip-path="url(#clip0_10699_115721)">
<path d="M13.3091 0.316117L8.72168 11.5588H5.72006L3.45469 2.58796C3.34142 2.06369 3.17152 1.83068 2.77508 1.59767C2.09547 1.24815 0.962783 0.840387 0 0.665631L0.0566335 0.316117H4.87055C5.49352 0.316117 6.05988 0.723885 6.17315 1.48117L7.36244 8.00545L10.3074 0.374369H13.3091V0.316117ZM25.0324 7.88894C25.0324 4.91807 21.0679 4.7433 21.0679 3.46175C21.0679 3.05398 21.4644 2.64621 22.2573 2.52971C22.6537 2.47145 23.7864 2.4132 25.0324 3.05398L25.5421 0.665631C24.8624 0.43262 24.0129 0.141357 22.8803 0.141357C20.1052 0.141357 18.123 1.65592 18.123 3.86952C18.123 5.50058 19.5388 6.37436 20.6149 6.89865C21.6909 7.4229 22.0874 7.77243 22.0874 8.29669C22.0874 9.05399 21.2379 9.40349 20.3883 9.40349C18.9725 9.40349 18.123 8.99574 17.5 8.70447L16.9903 11.1511C17.6699 11.4423 18.8592 11.7336 20.1052 11.7336C23.0502 11.7336 24.9757 10.219 25.0324 7.88894ZM32.3948 11.5588H35L32.7346 0.316117H30.2994C29.733 0.316117 29.2799 0.665631 29.11 1.13165L24.8624 11.5588H27.8074L28.3738 9.86952H31.9984L32.3948 11.5588ZM29.2233 7.59767L30.6958 3.40349L31.5453 7.59767H29.2233ZM17.3301 0.316117L15.0081 11.5588H12.1764L14.4984 0.316117H17.3301Z" fill="#1434CB"/>
</g>
<defs>
<clipPath id="clip0_10699_115721">
<rect width="35" height="12" fill="white"/>
</clipPath>
</defs>
</svg>
